<svg width="40" height="40" xmlns="http://www.w3.org/2000/svg">
    <defs>
        <linearGradient x1="35.019%" y1="39.758%" x2="67.721%" y2="84.553%" id="a">
            <stop stop-color="#688FBD" offset="0%"/>
            <stop stop-color="#30598A" offset="100%"/>
        </linearGradient>
    </defs>
    <g fill="none" fill-rule="evenodd">
        <circle fill="url(#a)" cx="20" cy="20" r="20"/>
        <g fill-rule="nonzero">
            <path d="m26.564 32.67-3.23-3.23 3.23-3.23a.652.652 0 0 0 0-.922l-1.846-1.846a.653.653 0 0 0-.923 0l-3.23 3.23-3.23-3.23a.653.653 0 0 0-.922 0l-1.846 1.846a.652.652 0 0 0 0 .922l3.23 3.23-3.23 3.23a.652.652 0 0 0 0 .923l1.846 1.845a.653.653 0 0 0 .923 0l3.23-3.23 3.23 3.23a.653.653 0 0 0 .922 0l1.846-1.845a.652.652 0 0 0 0-.923z" fill="#ECECEC"/>
            <path d="m14.567 33.593 1.846 1.845a.652.652 0 0 0 .923 0l3.23-3.23v-5.536l-3.23-3.23a.652.652 0 0 0-.923 0l-1.846 1.846a.652.652 0 0 0 0 .922l3.23 3.23-3.23 3.23a.652.652 0 0 0 0 .923zM15.5 20.341V8.087h-4.957v2.773h1.837v9.481h3.12zm4.593 0v-2.964h-3.068v2.964h3.068zm6.604.035c1.363 0 2.42-.39 3.172-1.17.75-.78 1.126-1.84 1.126-3.18a5.04 5.04 0 0 0-.398-2.029 3.273 3.273 0 0 0-1.23-1.464c-.556-.364-1.243-.546-2.064-.546-.508 0-.979.078-1.412.234-.433.156-.771.372-1.014.65v-2.479h5.512v-2.6H22.19v7.419h2.878c.092-.266.265-.483.52-.65.254-.168.571-.252.953-.252.497 0 .884.145 1.161.434.277.288.416.699.416 1.23 0 .555-.13 1-.39 1.335-.26.335-.65.502-1.17.502-.45 0-.806-.127-1.066-.38a1.651 1.651 0 0 1-.476-.971H22.12c.023.774.22 1.455.59 2.045.369.59.895 1.048 1.577 1.378.681.33 1.484.494 2.409.494z" fill="#FFF"/>
        </g>
    </g>
</svg>
