<svg width="40" height="40" xmlns="http://www.w3.org/2000/svg">
    <defs>
        <linearGradient x1="35.019%" y1="39.758%" x2="67.721%" y2="84.553%" id="a">
            <stop stop-color="#688FBD" offset="0%"/>
            <stop stop-color="#30598A" offset="100%"/>
        </linearGradient>
    </defs>
    <g fill="none" fill-rule="evenodd">
        <circle fill="url(#a)" cx="20.229" cy="20.183" r="19.412"/>
        <path d="M12.644 27.161c1.15 0 2.136-.203 2.956-.61.82-.406 1.445-.973 1.874-1.701.43-.729.644-1.56.644-2.496 0-1.947-1.05-3.258-3.15-3.933v-.115a3.541 3.541 0 0 0 2.035-1.219c.544-.644.816-1.495.816-2.553 0-.859-.21-1.63-.632-2.312-.422-.682-1.039-1.218-1.852-1.61-.812-.39-1.786-.586-2.92-.586-1.795 0-3.19.46-4.187 1.38-.996.92-1.533 2.239-1.61 3.956h3.841c.046-.629.23-1.13.552-1.507.322-.375.76-.563 1.311-.563.506 0 .909.15 1.208.449.299.299.448.724.448 1.276 0 1.273-.866 1.894-2.599 1.863h-.713v3.197h.736c1.932 0 2.898.667 2.898 2.001 0 .537-.164.974-.494 1.311-.33.337-.778.506-1.346.506-.705 0-1.242-.207-1.61-.621-.368-.414-.567-.981-.598-1.702h-3.84c.091 1.886.686 3.289 1.782 4.209 1.096.92 2.58 1.38 4.45 1.38z" fill="#F2F2F2" fill-rule="nonzero"/>
        <g fill-rule="nonzero">
            <path d="m31.654 22.954-3.181-3.109 3.18-3.108a.62.62 0 0 0 0-.889l-1.817-1.776a.653.653 0 0 0-.909 0l-3.18 3.109-3.182-3.11a.653.653 0 0 0-.909 0l-1.818 1.777a.618.618 0 0 0 0 .889l3.181 3.108-3.18 3.11a.618.618 0 0 0 0 .887l1.817 1.777a.65.65 0 0 0 .909 0l3.181-3.109 3.181 3.109a.65.65 0 0 0 .909 0l1.818-1.777a.618.618 0 0 0 0-.888z" fill="#ECECEC"/>
            <path d="m19.838 23.842 1.818 1.777a.65.65 0 0 0 .909 0l3.181-3.109v-5.33l-3.181-3.108a.653.653 0 0 0-.909 0l-1.818 1.776a.618.618 0 0 0 0 .889l3.181 3.108-3.18 3.11a.618.618 0 0 0 0 .887z" fill="#FFF"/>
        </g>
    </g>
</svg>
