<svg xmlns="http://www.w3.org/2000/svg" width="64" height="64" viewBox="0 0 64 64">
    <defs>
        <linearGradient id="3hnubelvca" x1="35.019%" x2="67.721%" y1="39.758%" y2="84.553%">
            <stop offset="0%" stop-color="#FB6E00"/>
            <stop offset="100%" stop-color="#FA3800"/>
        </linearGradient>
    </defs>
    <g fill="none" fill-rule="evenodd">
        <g>
            <g>
                <g>
                    <g transform="translate(-262 -379) translate(32 366) translate(212) translate(18 13)">
                        <circle cx="32.367" cy="32.293" r="31.059" fill="url(#3hnubelvca)"/>
                        <path fill="#F2F2F2" fill-rule="nonzero" d="M20.231 43.458c1.84 0 3.416-.325 4.729-.976 1.312-.65 2.312-1.557 3-2.723.686-1.165 1.03-2.496 1.03-3.993 0-3.115-1.681-5.213-5.042-6.292v-.184c1.3-.27 2.386-.92 3.257-1.95.87-1.031 1.306-2.393 1.306-4.086 0-1.373-.337-2.606-1.012-3.698s-1.662-1.95-2.962-2.576c-1.3-.626-2.858-.938-4.674-.938-2.87 0-5.103.736-6.698 2.208-1.594 1.472-2.453 3.581-2.576 6.33h6.146c.074-1.007.368-1.81.883-2.411s1.215-.902 2.098-.902c.81 0 1.453.24 1.932.718.478.478.717 1.159.717 2.042 0 2.036-1.386 3.03-4.158 2.981h-1.14v5.115h1.177c3.091 0 4.637 1.067 4.637 3.202 0 .858-.264 1.558-.792 2.097-.527.54-1.245.81-2.152.81-1.129 0-1.988-.331-2.576-.994-.59-.662-.908-1.57-.957-2.723h-6.146c.147 3.018 1.098 5.263 2.852 6.735 1.754 1.472 4.128 2.208 7.121 2.208z"/>
                        <g fill-rule="nonzero">
                            <g>
                                <path fill="#ECECEC" d="M19.206 14.506l-5.09-4.974 5.09-4.974c.193-.189.301-.444.301-.71 0-.267-.108-.523-.3-.711L16.296.294c-.4-.392-1.052-.392-1.454 0l-5.09 4.974L4.664.294c-.4-.392-1.052-.392-1.453 0L.3 3.137c-.401.392-.401 1.028 0 1.42l5.09 4.975-5.09 4.974c-.401.392-.401 1.029 0 1.421L3.21 18.77c.193.188.454.294.727.294.273 0 .534-.106.727-.294l5.09-4.975 5.09 4.975c.192.188.454.294.727.294.272 0 .534-.106.727-.294l2.908-2.843c.402-.392.402-1.028 0-1.421z" transform="translate(31.44 21.367) translate(0 .853)"/>
                                <path fill="#FFF" d="M.301 15.927L3.21 18.77c.193.188.454.294.727.294.273 0 .534-.106.727-.294l5.09-4.975V5.268L4.664.294c-.402-.392-1.053-.392-1.454 0L.3 3.137c-.401.392-.401 1.028 0 1.42l5.09 4.975-5.09 4.974c-.401.393-.401 1.029 0 1.421z" transform="translate(31.44 21.367) translate(0 .853)"/>
                            </g>
                        </g>
                    </g>
                </g>
            </g>
        </g>
    </g>
</svg>
