<svg xmlns="http://www.w3.org/2000/svg" width="15" height="8" viewBox="0 0 15 8">
    <g fill="none" fill-rule="evenodd">
        <g fill="#F2F2F2" fill-rule="nonzero">
            <g>
                <g>
                    <g>
                        <path d="M6.4 6.434L1.076.135C1.01.045.933 0 .846 0 .759 0 .682.045.615.135L.112.811c-.067.09-.1.194-.1.311 0 .117.033.22.1.31L4.7 6.746.112 12.057c-.067.09-.1.194-.1.31 0 .118.033.222.1.312l.503.676c.067.09.144.135.23.135.088 0 .165-.045.232-.135l5.322-6.3c.067-.09-.536-.193-.536-.31 0-.117.603-.22.536-.311z" transform="translate(-331 -436) translate(240 416) translate(16 13) rotate(90 40.74 48.543)"/>
                    </g>
                </g>
            </g>
        </g>
    </g>
</svg>
