<svg xmlns="http://www.w3.org/2000/svg" width="68" height="68" viewBox="0 0 68 68">
    <defs>
        <linearGradient id="w019g42g8a" x1="50%" x2="50%" y1="100%" y2="0%">
            <stop offset="0%" stop-color="#7B7873"/>
            <stop offset="100%" stop-color="#333"/>
        </linearGradient>
        <linearGradient id="0o2wpdipsb" x1="50%" x2="50%" y1="100%" y2="0%">
            <stop offset=".055%" stop-color="#7B7873"/>
            <stop offset="100%" stop-color="#333"/>
        </linearGradient>
    </defs>
    <g fill="none" fill-rule="evenodd">
        <g>
            <g>
                <g>
                    <path fill="url(#w019g42g8a)" fill-rule="nonzero" d="M34.102 0C.018 0-1.677 35.773.74 38.096l29.608 28.455c.111.107.228.209.35.305 2.073 1.637 5.276 1.5 7.155-.305l29.608-28.455C69.312 36.32 68.185 0 34.102 0zm30.376 36.617C62.79 38.21 53.082 47.518 35.353 64.544c-.627.603-1.695.648-2.386.102-.041-.032-.08-.066-.117-.102L3.87 36.693C1.304 34.229 5.634 3.43 34.101 3.43c28.466 0 32.907 30.799 30.376 33.187z" transform="translate(-30 -702) translate(14 551) translate(16 151)"/>
                    <path fill="url(#0o2wpdipsb)" fill-rule="nonzero" d="M36.49 13.975c-1.264-1.012-3.218-.927-4.364.189L14.07 31.754c-1.068 1.039-1.068 2.624 0 3.664l18.057 17.589c.068.066.14.129.214.188 1.264 1.012 3.217.928 4.363-.188l18.057-17.59c1.068-1.039 1.068-2.624 0-3.664L36.703 14.164c-.068-.066-.139-.129-.214-.189zm-1.366 2.681l16.797 16.361c.33.323.33.814 0 1.136L35.124 50.514c-.355.346-.96.373-1.353.059-.023-.019-.045-.038-.066-.059L16.91 34.154c-.331-.323-.331-.814 0-1.137l16.796-16.36c.355-.347.961-.373 1.353-.06.023.02.045.039.066.06z" transform="translate(-30 -702) translate(14 551) translate(16 151)"/>
                    <path fill="#8C8C8C" d="M29.37 10.436h8.797c.552 0 1 .448 1 1v8.796c0 .553-.448 1-1 1H29.37c-.552 0-1-.447-1-1v-8.796c0-.552.448-1 1-1z" transform="translate(-30 -702) translate(14 551) translate(16 151) rotate(45 33.768 15.834)"/>
                    <path fill="#8C8C8C" d="M29.37 46.24h8.797c.552 0 1 .447 1 1v8.796c0 .552-.448 1-1 1H29.37c-.552 0-1-.448-1-1v-8.797c0-.552.448-1 1-1z" transform="translate(-30 -702) translate(14 551) translate(16 151) rotate(45 33.768 51.638)"/>
                    <path fill="#FB6E00" d="M48.517 28.338h8.797c.552 0 1 .447 1 1v8.796c0 .552-.448 1-1 1h-8.797c-.552 0-1-.448-1-1v-8.796c0-.553.448-1 1-1z" transform="translate(-30 -702) translate(14 551) translate(16 151) rotate(45 52.916 33.736)"/>
                    <path fill="#8C8C8C" d="M10.223 28.338h8.796c.552 0 1 .447 1 1v8.796c0 .552-.448 1-1 1h-8.796c-.553 0-1-.448-1-1v-8.796c0-.553.447-1 1-1z" transform="translate(-30 -702) translate(14 551) translate(16 151) rotate(45 14.62 33.736)"/>
                </g>
            </g>
        </g>
    </g>
</svg>
