<svg xmlns="http://www.w3.org/2000/svg" width="24" height="24" viewBox="0 0 24 24">
    <g fill="none" fill-rule="evenodd">
        <g fill-rule="nonzero">
            <g>
                <g>
                    <g>
                        <path fill="#FB6E00" d="M19.743 3.387C17.559 1.203 14.654 0 11.565 0 8.476 0 5.572 1.203 3.387 3.387 1.203 5.572 0 8.476 0 11.565c0 3.09 1.203 5.994 3.387 8.178 2.185 2.184 5.089 3.387 8.178 3.387 3.09 0 5.994-1.203 8.178-3.387 2.184-2.184 3.387-5.089 3.387-8.178 0-3.089-1.203-5.993-3.387-8.178z" transform="translate(-30 -2971) translate(14 2909) translate(16 58) translate(0 4)"/>
                        <path fill="#111" d="M17.09 8.813l-6.463 6.463c-.132.132-.305.198-.479.198-.173 0-.347-.066-.479-.198l-3.63-3.63c-.264-.264-.264-.693 0-.958.265-.264.695-.264.96 0l3.15 3.15 5.983-5.984c.265-.264.694-.264.959 0 .264.265.264.694 0 .959z" transform="translate(-30 -2971) translate(14 2909) translate(16 58) translate(0 4)"/>
                    </g>
                </g>
            </g>
        </g>
    </g>
</svg>
