<svg xmlns="http://www.w3.org/2000/svg" width="18" height="18" viewBox="0 0 18 18">
    <g fill="none" fill-rule="evenodd">
        <g>
            <g>
                <g>
                    <g>
                        <g>
                            <g transform="translate(-81 -466) translate(0 282) translate(24 41) translate(0 51) translate(3 86) translate(54 6)">
                                <circle cx="9" cy="9" r="9" fill="#688FBD"/>
                                <g fill="#000" fill-rule="nonzero">
                                    <path d="M5.635.002L4.233 0C2.657 0 1.639 1.045 1.639 2.661v1.227H.23c-.122 0-.22.1-.22.221v1.778c0 .122.098.22.22.22h1.41v4.486c0 .122.099.22.22.22H3.7c.122 0 .22-.098.22-.22V6.107h1.65c.121 0 .22-.098.22-.22V4.109c0-.059-.023-.115-.064-.156-.041-.041-.098-.065-.156-.065h-1.65v-1.04c0-.5.12-.754.771-.754h.945c.122 0 .22-.099.22-.22V.223c0-.122-.098-.22-.22-.22z" transform="translate(5.625 3.375)"/>
                                </g>
                            </g>
                        </g>
                    </g>
                </g>
            </g>
        </g>
    </g>
</svg>
