<svg xmlns="http://www.w3.org/2000/svg" width="36" height="36" viewBox="0 0 36 36">
    <g fill="none" fill-rule="evenodd">
        <g>
            <g>
                <g>
                    <g>
                        <path fill="#F2F2F2" fill-rule="nonzero" d="M14.571 14.571H7.714v12h6.857v-12zm-4.305 4.593v-1.186h1.681v5.099h-1.282v-3.913h-.4zM22.286 21.429L27.429 21.429 27.429 26.571 22.286 26.571zM16.286 18L21.429 18 21.429 26.571 16.286 26.571zM9.024 12.857L11.143 11.686 13.262 12.857 12.857 10.376 14.571 8.619 12.202 8.257 11.143 6 10.083 8.257 7.714 8.619 9.429 10.376z" transform="translate(-54 -269) translate(17 163) translate(0 99) translate(37 7)"/>
                    </g>
                </g>
            </g>
        </g>
    </g>
</svg>
