<svg xmlns="http://www.w3.org/2000/svg" width="40" height="40" viewBox="0 0 40 40">
    <defs>
        <linearGradient id="ql4963veva" x1="35.019%" x2="67.721%" y1="39.758%" y2="84.553%">
            <stop offset="0%" stop-color="#FB6E00"/>
            <stop offset="100%" stop-color="#FA3800"/>
        </linearGradient>
    </defs>
    <g fill="none" fill-rule="evenodd">
        <g>
            <g>
                <g>
                    <g transform="translate(-309 -643) translate(14 551) translate(295 92) translate(.746 .283)">
                        <circle cx="18.786" cy="18.786" r="18.786" fill="url(#ql4963veva)"/>
                        <g fill-rule="nonzero">
                            <path fill="#FFF" d="M20.383 15.121l-6.446-5.115c-.193-.153-.476-.014-.476.233v3.401H6.124c-1.77 0-3.583-.494-4.923-1.667-.21-.183-.533.004-.482.28.091.487.277 1.22.644 1.95.942 1.87 2.544 2.82 4.761 2.82h7.28v3.247c0 .112.063.214.162.265.098.05.218.04.308-.028l6.503-4.916c.073-.055.117-.141.118-.233.001-.092-.04-.18-.112-.237z" transform="translate(7.977 8.09)"/>
                            <path fill="#ECECEC" d="M20.383 15.121l-.84-.667c-6.126 4.63-5.705 4.344-5.845 4.344-.161 0-.294-.132-.294-.297v1.769c0 .112.063.214.162.265.098.05.218.04.308-.028l6.503-4.916c.073-.055.117-.141.118-.233.001-.092-.04-.18-.112-.237z" transform="translate(7.977 8.09)"/>
                            <path fill="#FFF" d="M19.776 8.323c-.54-2.888-2.34-4.77-5.405-4.77H7.09V.305c0-.244-.277-.383-.47-.237L.118 4.983c-.155.117-.158.35-.006.47 6.944 5.51 6.482 5.18 6.628 5.18.161 0 .294-.132.294-.297V6.934h7.337c1.773 0 3.586.497 4.923 1.667.21.184.533-.004.482-.278z" transform="translate(7.977 8.09)"/>
                            <g fill="#ECECEC">
                                <path d="M6.74 4.594c-.146 0 .283.306-5.87-4.577l-.752.57c-.155.116-.158.349-.006.47l6.446 5.115c.192.152.476.014.476-.233V4.298c0 .165-.133.296-.294.296zM19.776 3.925c-.064-.34-.174-.802-.36-1.298-.196-.049-1.674-1.73-5.045-1.73H8.834c-.076.017-.19.026-.35.026-1.069 0-1.375.592-1.45 1.06v.554h7.337c1.773 0 3.586.497 4.923 1.667.21.184.533-.004.482-.279z" transform="translate(7.977 8.09) translate(0 4.397)"/>
                            </g>
                            <path fill="#ECECEC" d="M11.803 15.254H6.124c-2.458 0-4.126-1.176-4.987-3.322-.219-.108-.462.082-.418.32.54 2.889 2.34 4.77 5.405 4.77h7.28v-.42c-.054-.523-.338-1.348-1.6-1.348z" transform="translate(7.977 8.09)"/>
                        </g>
                    </g>
                </g>
            </g>
        </g>
    </g>
</svg>
