<svg xmlns="http://www.w3.org/2000/svg" width="40" height="40" viewBox="0 0 40 40">
    <defs>
        <linearGradient id="sz1jn51oea" x1="35.019%" x2="67.721%" y1="39.758%" y2="84.553%">
            <stop offset="0%" stop-color="#FB6E00"/>
            <stop offset="100%" stop-color="#FA3800"/>
        </linearGradient>
    </defs>
    <g fill="none" fill-rule="evenodd">
        <g>
            <g>
                <g transform="translate(-309 -2645) translate(14 2483) translate(295 162)">
                    <circle cx="19.635" cy="19.635" r="19.635" fill="url(#sz1jn51oea)"/>
                    <g fill="#FFF" fill-rule="nonzero">
                        <path d="M20.477 6.255c-.03-.64-.03-1.25-.03-1.86 0-.494-.377-.872-.87-.872-3.633 0-6.394-1.046-8.69-3.283-.348-.32-.871-.32-1.22 0C7.372 2.477 4.611 3.523.98 3.523c-.494 0-.872.378-.872.872 0 .61 0 1.22-.029 1.86-.116 6.102-.29 14.47 9.909 17.987l.29.058.291-.058c10.17-3.516 10.025-11.856 9.909-17.987zM9.58 14.71c-.174.145-.378.232-.61.232h-.03c-.232 0-.464-.116-.61-.29L5.629 11.66l1.308-1.163 2.121 2.354 4.707-4.475 1.192 1.279L9.58 14.71z" transform="translate(9.333 7.26)"/>
                    </g>
                </g>
            </g>
        </g>
    </g>
</svg>
