<svg xmlns="http://www.w3.org/2000/svg" width="13" height="13" viewBox="0 0 13 13">
    <g fill="none" fill-rule="evenodd">
        <g fill="#F2F2F2" fill-rule="nonzero">
            <g>
                <g>
                    <g>
                        <g>
                            <path d="M12.12 8.991L8.287 5.95c-.115-.091-.283-.009-.283.138v2.023H3.642c-1.053 0-2.131-.294-2.928-.991-.125-.11-.317.002-.286.165.054.29.164.727.382 1.16.56 1.113 1.513 1.677 2.832 1.677H7.97v1.93c0 .068.038.129.097.158.058.03.13.024.183-.016l3.867-2.923c.043-.033.07-.084.07-.139 0-.055-.024-.107-.067-.14z" transform="translate(-268 -337) translate(14 309) translate(235 16) translate(19 8) translate(0 4)"/>
                            <path d="M12.12 8.991l-.5-.396c-3.642 2.753-3.391 2.583-3.475 2.583-.096 0-.175-.079-.175-.177v1.052c0 .066.038.128.097.157.058.03.13.024.183-.016l3.867-2.923c.043-.033.07-.084.07-.139 0-.055-.024-.107-.067-.14zM11.759 4.949c-.32-1.717-1.391-2.836-3.214-2.836H4.216V.182c0-.146-.164-.228-.28-.141L.07 2.963c-.092.07-.094.208-.003.28 4.128 3.276 3.854 3.08 3.94 3.08.097 0 .176-.08.176-.177V4.123h4.362c1.055 0 2.133.296 2.928.992.125.109.317-.003.286-.166z" transform="translate(-268 -337) translate(14 309) translate(235 16) translate(19 8) translate(0 4)"/>
                            <g>
                                <path d="M4.008 2.732c-.087 0 .168.182-3.49-2.722L.07.35C-.022.418-.024.556.067.628L3.9 3.67c.114.09.283.008.283-.139v-.975c0 .098-.08.176-.175.176zM11.759 2.334c-.038-.203-.103-.477-.214-.772-.116-.029-.995-1.029-3-1.029H5.253c-.045.01-.113.016-.208.016-.636 0-.818.352-.862.63v.33h4.362c1.055 0 2.133.295 2.928.99.125.11.317-.001.286-.165z" transform="translate(-268 -337) translate(14 309) translate(235 16) translate(19 8) translate(0 4) translate(0 2.615)"/>
                            </g>
                            <path d="M7.018 9.07H3.642c-1.462 0-2.454-.699-2.966-1.975-.13-.064-.275.049-.248.19.32 1.718 1.39 2.837 3.214 2.837H7.97v-.25c-.032-.311-.2-.802-.952-.802z" transform="translate(-268 -337) translate(14 309) translate(235 16) translate(19 8) translate(0 4)"/>
                        </g>
                    </g>
                </g>
            </g>
        </g>
    </g>
</svg>
