<svg xmlns="http://www.w3.org/2000/svg" width="18" height="18" viewBox="0 0 18 18">
    <g fill="none" fill-rule="evenodd">
        <g>
            <g>
                <g>
                    <g>
                        <g>
                            <g>
                                <g>
                                    <g fill="#688FBD" transform="translate(-103 -466) translate(0 282) translate(24 41) translate(0 51) translate(3 86) translate(54 6) translate(22)">
                                        <circle cx="9" cy="9" r="9"/>
                                    </g>
                                    <g fill="#000" fill-rule="nonzero">
                                        <path d="M3.416 8.828c4.098 0 6.34-3.395 6.34-6.339 0-.096-.003-.192-.007-.288.435-.314.813-.707 1.111-1.153-.399.177-.829.296-1.28.35.46-.276.814-.712.98-1.232-.43.255-.907.44-1.414.54C8.739.275 8.16.004 7.52.004c-1.23 0-2.228.998-2.228 2.228 0 .174.02.344.057.508C3.498 2.645 1.856 1.759.757.41.566.74.455 1.123.455 1.53c0 .773.394 1.455.992 1.854-.366-.011-.709-.112-1.01-.279v.029c0 1.079.768 1.98 1.788 2.184-.187.05-.384.078-.588.078-.143 0-.283-.014-.418-.04.283.885 1.106 1.53 2.08 1.547-.762.598-1.722.954-2.766.954-.18 0-.357-.01-.532-.03.986.631 2.157 1 3.415 1" transform="translate(-103 -466) translate(0 282) translate(24 41) translate(0 51) translate(3 86) translate(54 6) translate(22) translate(3.333 4.667)"/>
                                    </g>
                                </g>
                            </g>
                        </g>
                    </g>
                </g>
            </g>
        </g>
    </g>
</svg>
