<svg xmlns="http://www.w3.org/2000/svg" width="40" height="40" viewBox="0 0 40 40">
    <defs>
        <linearGradient id="i1nfhcrlxa" x1="35.019%" x2="67.721%" y1="39.758%" y2="84.553%">
            <stop offset="0%" stop-color="#FB6E00"/>
            <stop offset="100%" stop-color="#FA3800"/>
        </linearGradient>
    </defs>
    <g fill="none" fill-rule="evenodd">
        <g>
            <g>
                <g transform="translate(-309 -2575) translate(14 2483) translate(295 92)">
                    <circle cx="20.133" cy="20.133" r="19.407" fill="url(#i1nfhcrlxa)"/>
                    <g fill-rule="nonzero">
                        <g>
                            <path fill="#ECECEC" d="M26.901 1.74c-.288-.16-.64-.192-.927-.032L19.48 5.1v5.854l6.462 3.39c.128.064.288.096.447.096.16 0 .352-.032.512-.128.288-.16.448-.48.448-.831V2.572c0-.32-.16-.64-.448-.832z" transform="translate(6.877 12.002)"/>
                            <path fill="#FFF" d="M19.768 1.964c0-1.087-.832-1.919-1.92-1.919H1.92C.832.045 0 .877 0 1.965v12.154c0 1.088.832 1.92 1.92 1.92h15.929c1.087 0 1.92-.832 1.92-1.92V1.964z" transform="translate(6.877 12.002)"/>
                            <path fill="#F5B712" d="M2.916 2.332c-.957 0-1.75.794-1.75 1.75S1.96 5.83 2.916 5.83c.956 0 1.749-.793 1.749-1.75 0-.955-.793-1.749-1.75-1.749z" transform="translate(6.877 12.002)"/>
                        </g>
                        <g>
                            <path fill="#F0B310" d="M8.156 1.4C7.254.496 6.056 0 4.78 0 3.632 0 2.54.407 1.674 1.151L.748.241.563 3.387l3.196-.236-.907-.84c.55-.432 1.224-.666 1.93-.666 1.725 0 3.13 1.405 3.13 3.133 0 1.727-1.405 3.133-3.13 3.133-.793 0-1.55-.297-2.13-.837-.577-.536-.929-1.263-.99-2.046l-.02-.257H0l.018.296C.168 7.582 2.26 9.554 4.78 9.554c1.275 0 2.473-.497 3.375-1.4.901-.902 1.398-2.101 1.398-3.377 0-1.276-.497-2.476-1.398-3.378z" transform="translate(6.877 12.002) translate(5.831 3.499)"/>
                            <path fill="#D59B03" d="M8.156 1.4C7.254.496 6.056 0 4.78 0h-.004v1.644h.004c1.726 0 3.13 1.405 3.13 3.133 0 1.727-1.404 3.133-3.13 3.133h-.004v1.644h.004c1.275 0 2.473-.497 3.375-1.4.901-.902 1.398-2.101 1.398-3.377 0-1.276-.497-2.476-1.398-3.378z" transform="translate(6.877 12.002) translate(5.831 3.499)"/>
                        </g>
                    </g>
                </g>
            </g>
        </g>
    </g>
</svg>
