<svg width="12" height="12" xmlns="http://www.w3.org/2000/svg">
    <g fill="#688FBD" fill-rule="nonzero">
        <path d="M4.935 9.127a.19.19 0 0 0-.151-.096.188.188 0 0 0-.16.077c-.245.326-.327.348-.78.35H3.2l.204 1.066h-.396l-.204-1.067h-.959l.21 1.091a.92.92 0 0 0-.361.18l-.244-1.27H.713c-.299 0-.511.127-.632.377-.11.231-.104.512.007.783.111.27.136.332.341.766.205.435.519.42 1.143.42H4.36c.45 0 .885-.4 1.307-1.202a.232.232 0 0 0 0-.233l-.733-1.242zM10.369 2.792l-1.017-.814-.926 1.399 1.114.819zM11.383 1.075c.159-.268.128-.616-.072-.826a.552.552 0 0 0-.401-.178c-.186 0-.362.099-.47.264l-.86 1.298 1 .801.803-1.36zM6.793 7.991c.037.056.075.108.115.16a.187.187 0 0 0 .16.074.191.191 0 0 0 .149-.097l2.111-3.574-1.131-.832-2.033 3.069a.232.232 0 0 0 0 .252l.629.948zM3.033 5.255l1.082-.868-.983-1.484-.927.95zM9.427 9.457l-.71 2.347h.947l.71-2.347zM11.847 9.867a.684.684 0 0 0-.614-.41h-.451l-.71 2.347h.847c.23 0 .476-.177.586-.42l.348-.763a.903.903 0 0 0-.006-.754z"/>
        <path d="M8.102 9.457c-.454-.001-.751-.184-1.06-.651L4.343 4.732l-1.098.88 3.002 5.084c.41.694 1.103 1.108 1.854 1.108h.209l.71-2.347h-.918zM1.99 3.49l.912-.934-.764-1.153a.565.565 0 0 0-.47-.266.552.552 0 0 0-.401.178c-.2.21-.23.558-.072.827l.796 1.347z"/>
    </g>
</svg>
