<svg width="12" height="11" xmlns="http://www.w3.org/2000/svg">
    <g fill="#688FBD" fill-rule="nonzero">
        <path d="M11.004.5H.71C.32.5 0 .92 0 1.438v8.339c0 .399.122.723.424.723s.418-.324.418-.723V2.81c0-1.199 0-1.199.909-1.199h8.288c.909 0 .909 0 .909 1.199v6.967c0 .399.09.723.393.723.303 0 .448-.324.448-.723v-8.24C11.79.965 11.437.5 11.004.5z"/>
        <path d="M2.947 5.413c.117 0 .21-.124.21-.278V4.58c0-.154-.093-.278-.21-.278-.116 0-.21.124-.21.278v.555c0 .154.094.278.21.278zM2.737 6.802c0 .153.094.278.21.278.117 0 .21-.125.21-.278v-.556c0-.153-.093-.277-.21-.277-.116 0-.21.124-.21.277v.556zM2.032 8.837l-.337.333c-.093.092-.112.266-.042.389.041.073.104.111.168.111a.179.179 0 0 0 .127-.056l.336-.333c.093-.092.112-.266.043-.389-.07-.123-.202-.148-.295-.055zM2.603 3.541l-.298-.392c-.082-.109-.215-.109-.298 0a.344.344 0 0 0 0 .393l.298.392a.188.188 0 0 0 .15.082.188.188 0 0 0 .148-.082.343.343 0 0 0 0-.393zM1.884 2.593 1.586 2.2c-.082-.108-.215-.108-.298 0a.344.344 0 0 0 0 .393l.298.393a.188.188 0 0 0 .15.08.188.188 0 0 0 .148-.08.343.343 0 0 0 0-.393zM9.076 8.143l-.023-.02v-.21c0-.153-.094-.278-.21-.278-.117 0-.211.125-.211.278v.365c0 .096.037.184.099.235l.122.101a.175.175 0 0 0 .111.043c.07 0 .14-.047.18-.13.06-.131.03-.302-.068-.384zM9.782 3.542a.344.344 0 0 0 0-.393c-.082-.109-.215-.109-.298 0l-.297.392a.344.344 0 0 0 0 .393.188.188 0 0 0 .148.082.189.189 0 0 0 .15-.081l.297-.393zM10.544 2.593a.344.344 0 0 0 0-.393c-.082-.109-.215-.108-.298 0l-.297.393a.344.344 0 0 0 0 .393.188.188 0 0 0 .148.081.189.189 0 0 0 .15-.08l.297-.394zM10.147 9.027l-.357-.295c-.098-.081-.228-.041-.29.089-.061.13-.031.3.067.382l.357.295a.175.175 0 0 0 .111.042c.07 0 .14-.046.18-.13.061-.13.03-.302-.068-.383zM8.842 5.413c.117 0 .21-.124.21-.278V4.58c0-.154-.093-.278-.21-.278-.116 0-.21.124-.21.278v.555c0 .154.094.278.21.278zM8.632 6.802c0 .153.094.278.21.278.117 0 .21-.125.21-.278v-.556c0-.153-.093-.277-.21-.277-.116 0-.21.124-.21.277v.556zM4.632 8H4.21C4.094 8 4 8.124 4 8.278c0 .153.094.278.21.278h.422c.116 0 .21-.125.21-.278 0-.154-.094-.278-.21-.278zM5.895 8h-.421c-.117 0-.21.124-.21.278 0 .153.093.278.21.278h.42c.117 0 .211-.125.211-.278 0-.154-.094-.278-.21-.278zM7.158 8h-.421c-.117 0-.21.124-.21.278 0 .153.093.278.21.278h.42c.117 0 .211-.125.211-.278 0-.154-.094-.278-.21-.278zM8.421 8H8c-.116 0-.21.124-.21.278 0 .153.094.278.21.278h.421c.116 0 .21-.125.21-.278 0-.154-.094-.278-.21-.278zM3.368 8h-.21v-.087c0-.153-.094-.278-.21-.278-.117 0-.211.125-.211.278v.226l-.031.031c-.093.092-.112.266-.042.389.04.073.104.111.168.111a.179.179 0 0 0 .126-.056l.06-.058h.35c.117 0 .21-.125.21-.278 0-.154-.093-.278-.21-.278z"/>
    </g>
</svg>
