<svg xmlns="http://www.w3.org/2000/svg" width="64" height="64" viewBox="0 0 64 64">
    <defs>
        <linearGradient id="w5gndnawqa" x1="35.019%" x2="67.721%" y1="39.758%" y2="84.553%">
            <stop offset="0%" stop-color="#FB6E00"/>
            <stop offset="100%" stop-color="#FA3800"/>
        </linearGradient>
    </defs>
    <g fill="none" fill-rule="evenodd">
        <g>
            <g>
                <g>
                    <g transform="translate(-156 -379) translate(32 366) translate(106) translate(18 13)">
                        <circle cx="32.367" cy="32.293" r="31.059" fill="url(#w5gndnawqa)"/>
                        <g fill-rule="nonzero">
                            <g>
                                <path fill="#ECECEC" d="M19.206 14.506l-5.09-4.974 5.09-4.974c.193-.189.301-.444.301-.71 0-.267-.108-.523-.3-.711L16.296.294c-.4-.392-1.052-.392-1.454 0l-5.09 4.974L4.664.294c-.4-.392-1.052-.392-1.453 0L.3 3.137c-.401.392-.401 1.028 0 1.42l5.09 4.975-5.09 4.974c-.401.392-.401 1.029 0 1.421L3.21 18.77c.193.188.454.294.727.294.273 0 .534-.106.727-.294l5.09-4.975 5.09 4.975c.192.188.454.294.727.294.272 0 .534-.106.727-.294l2.908-2.843c.402-.392.402-1.028 0-1.421z" transform="translate(10.258 16.567) translate(21.2 5.653)"/>
                                <path fill="#FFF" d="M.301 15.927L3.21 18.77c.193.188.454.294.727.294.273 0 .534-.106.727-.294l5.09-4.975V5.268L4.664.294c-.402-.392-1.053-.392-1.454 0L.3 3.137c-.401.392-.401 1.028 0 1.42l5.09 4.975-5.09 4.974c-.401.393-.401 1.029 0 1.421z" transform="translate(10.258 16.567) translate(21.2 5.653)"/>
                            </g>
                            <path fill="#FFF" d="M17.666 25.234v-4.727h-9.78c2.571-1.553 4.78-3.454 6.626-5.703 1.846-2.25 2.769-4.55 2.769-6.903 0-2.124-.684-3.848-2.05-5.173C13.862 1.404 11.835.742 9.148.742c-2.57 0-4.697.742-6.38 2.226C1.087 4.453.175 6.668.035 9.614H5.89c.046-1.348.286-2.341.718-2.98.433-.64 1.116-.96 2.05-.96 1.66 0 2.49.937 2.49 2.81 0 3.06-3.716 7.182-11.147 12.366v4.384h17.666z" transform="translate(10.258 16.567)"/>
                        </g>
                    </g>
                </g>
            </g>
        </g>
    </g>
</svg>
