<svg xmlns="http://www.w3.org/2000/svg" width="24" height="24" viewBox="0 0 24 24">
    <defs>
        <linearGradient id="6e7xkbj7ra" x1="35.019%" x2="67.721%" y1="39.758%" y2="84.553%">
            <stop offset="0%" stop-color="#FB6E00"/>
            <stop offset="100%" stop-color="#FA3800"/>
        </linearGradient>
    </defs>
    <g fill="none" fill-rule="evenodd">
        <g>
            <g>
                <g>
                    <g>
                        <g>
                            <g transform="translate(-175 -948) translate(14 863) translate(15 60) translate(112 1) translate(0 20) translate(34 4)">
                                <circle cx="12.138" cy="12.11" r="11.647" fill="url(#6e7xkbj7ra)"/>
                                <g fill-rule="nonzero">
                                    <g>
                                        <path fill="#ECECEC" d="M7.202 5.44L5.294 3.574 7.202 1.71c.073-.07.113-.166.113-.266s-.04-.196-.113-.267L6.112.11c-.151-.147-.395-.147-.546 0L3.658 1.976 1.748.11c-.15-.147-.394-.147-.544 0L.113 1.176c-.15.147-.15.386 0 .533l1.909 1.866L.113 5.44c-.15.147-.15.386 0 .533l1.09 1.066c.073.07.171.11.273.11.103 0 .2-.04.273-.11l1.909-1.866L5.566 7.04c.073.07.17.11.273.11.102 0 .2-.04.273-.11l1.09-1.066c.15-.147.15-.386 0-.533z" transform="translate(3.847 6.213) translate(7.95 2.12)"/>
                                        <path fill="#FFF" d="M.113 5.973l1.09 1.066c.073.07.171.11.273.11.103 0 .2-.04.273-.11l1.909-1.866V1.976L1.748.11c-.15-.147-.394-.147-.544 0L.113 1.176c-.15.147-.15.386 0 .533l1.909 1.866L.113 5.44c-.15.147-.15.386 0 .533z" transform="translate(3.847 6.213) translate(7.95 2.12)"/>
                                    </g>
                                    <path fill="#FFF" d="M6.625 9.463V7.69H2.958c.963-.582 1.792-1.295 2.484-2.139.692-.843 1.038-1.706 1.038-2.588 0-.797-.256-1.443-.769-1.94C5.2.526 4.438.278 3.431.278c-.964 0-1.762.278-2.393.835C.408 1.67.066 2.5.013 3.605h2.195c.018-.505.108-.878.27-1.117.162-.24.418-.36.769-.36.622 0 .933.351.933 1.053C4.18 4.33 2.787 5.875 0 7.82v1.644h6.625z" transform="translate(3.847 6.213)"/>
                                </g>
                            </g>
                        </g>
                    </g>
                </g>
            </g>
        </g>
    </g>
</svg>
