<svg xmlns="http://www.w3.org/2000/svg" width="28" height="28" viewBox="0 0 28 28">
    <g fill="none" fill-rule="evenodd">
        <g>
            <g transform="translate(-102 -348) translate(102 348)">
                <circle cx="14" cy="14" r="14" fill="#FB6E00"/>
                <g fill="#FFF" fill-rule="nonzero">
                    <path d="M13.002 4.66l.021.004H3.805L6.703 1.76c.142-.142.22-.334.22-.535 0-.202-.078-.393-.22-.535L6.252.24C6.11.096 5.922.018 5.72.018s-.391.078-.533.22L.22 5.206c-.143.142-.22.332-.22.533 0 .203.077.393.22.535l4.967 4.967c.142.142.33.22.533.22.201 0 .39-.078.532-.22l.45-.45c.143-.142.22-.331.22-.533 0-.201-.077-.38-.22-.522l-2.93-2.92h9.24c.415 0 .764-.358.764-.773v-.638c0-.415-.36-.745-.774-.745z" transform="translate(7 8)"/>
                </g>
            </g>
        </g>
    </g>
</svg>
