<svg xmlns="http://www.w3.org/2000/svg" width="14" height="14" viewBox="0 0 14 14">
    <g fill="none" fill-rule="evenodd">
        <g>
            <g>
                <g>
                    <g transform="translate(-330 -885) translate(14 863) translate(253 20) rotate(-180 38.5 8)">
                        <circle cx="7" cy="7" r="7" fill="#FB6E00"/>
                        <g fill="#FFF" fill-rule="nonzero">
                            <path d="M4.148 3.34L.924.116C.849.04.75 0 .644 0 .537 0 .438.041.364.116L.125.353C-.03.508-.03.76.126.913l2.707 2.708-2.71 2.711c-.075.075-.116.174-.116.28 0 .107.041.206.116.28l.237.238c.075.075.174.116.28.116.107 0 .206-.041.28-.116l3.228-3.227c.075-.075.116-.175.116-.281 0-.107-.04-.207-.116-.282z" transform="rotate(-90 6 2.432)"/>
                        </g>
                    </g>
                </g>
            </g>
        </g>
    </g>
</svg>
