<svg xmlns="http://www.w3.org/2000/svg" width="16" height="23" viewBox="0 0 16 23">
    <g fill="none" fill-rule="evenodd">
        <g fill="#F2F2F2" fill-rule="nonzero">
            <g>
                <g>
                    <g>
                        <g>
                            <g>
                                <path d="M7.05 10.528c2.084 0 3.778-1.695 3.778-3.778V4.582c-.215.045-.438.069-.667.069H3.273V6.75c0 2.083 1.694 3.778 3.778 3.778zM11.515 1.143V0H4.627C3.519 0 2.618.901 2.618 2.009v1.143h6.889c1.107 0 2.008-.901 2.008-2.009z" transform="translate(-294 -276) translate(17 163) translate(0 99) translate(230) translate(47 14) translate(.8 .2)"/>
                                <path d="M6.592 6.612c0 .232-.016.46-.047.684h.261c.568 0 1.03-.462 1.03-1.03 0-.568-.462-1.03-1.03-1.03h-.214v1.376zM5.89 11.127v1.02c0 .66.538 1.197 1.198 1.197.66 0 1.197-.537 1.197-1.197v-1.02c-.384.094-.785.145-1.197.145-.413 0-.813-.05-1.197-.145z" transform="translate(-294 -276) translate(17 163) translate(0 99) translate(230) translate(47 14) translate(.8 .2)"/>
                                <path d="M12.245 12.436H9.431c-.099 1.261-1.156 2.257-2.442 2.257-1.285 0-2.342-.996-2.44-2.257H1.733L0 14.42v6.78h13.979v-6.78l-1.734-1.983zM6.38 19.764H5.128v-2.32h-.626v-1.252H6.38v3.572zm2.884 0H8.012v-2.32h-.625v-1.252h1.877v3.572zM7.575 7.296h.26c-.03-.224-.046-.452-.046-.684V5.236h-.214c-.568 0-1.03.462-1.03 1.03 0 .568.462 1.03 1.03 1.03z" transform="translate(-294 -276) translate(17 163) translate(0 99) translate(230) translate(47 14) translate(.8 .2)"/>
                            </g>
                        </g>
                    </g>
                </g>
            </g>
        </g>
    </g>
</svg>
