<svg xmlns="http://www.w3.org/2000/svg" width="64" height="64" viewBox="0 0 64 64">
    <defs>
        <linearGradient id="lb1l5p3sha" x1="35.019%" x2="67.721%" y1="39.758%" y2="84.553%">
            <stop offset="0%" stop-color="#FB6E00"/>
            <stop offset="100%" stop-color="#FA3800"/>
        </linearGradient>
    </defs>
    <g fill="none" fill-rule="evenodd">
        <g>
            <g>
                <g transform="translate(-50 -379) translate(32 366) translate(18 13)">
                    <circle cx="32" cy="32" r="32" fill="url(#lb1l5p3sha)"/>
                    <g fill-rule="nonzero">
                        <g>
                            <path fill="#ECECEC" d="M19.5 15.07l-5.168-5.167L19.5 4.735c.195-.196.305-.461.305-.738 0-.277-.11-.543-.305-.738L16.547.306c-.408-.408-1.07-.408-1.477 0L9.903 5.473 4.735.306c-.408-.408-1.069-.408-1.476 0L.306 3.259c-.408.407-.408 1.068 0 1.476l5.167 5.168L.306 15.07c-.408.408-.408 1.069 0 1.477L3.259 19.5c.196.195.461.305.738.305.277 0 .543-.11.738-.305l5.168-5.168L15.07 19.5c.196.195.462.305.738.305.277 0 .543-.11.739-.305l2.953-2.953c.407-.408.407-1.07 0-1.477z" transform="translate(15.853 11.96) translate(7.149 25.242)"/>
                            <path fill="#FFF" d="M.306 16.547L3.259 19.5c.196.195.461.305.738.305.277 0 .542-.11.738-.305l5.168-5.168V5.473L4.735.306c-.408-.408-1.069-.408-1.476 0L.306 3.259c-.408.407-.408 1.068 0 1.476l5.167 5.168L.306 15.07c-.408.408-.408 1.069 0 1.477z" transform="translate(15.853 11.96) translate(7.149 25.242)"/>
                        </g>
                        <path fill="#FFF" d="M8.946 20.586V.979H1.015v4.437h2.94v15.17h4.991zm7.35 0v-4.743h-4.91v4.743h4.91zm10.565.055c2.182 0 3.874-.624 5.076-1.872 1.201-1.248 1.802-2.944 1.802-5.089 0-1.183-.212-2.264-.638-3.244-.425-.98-1.081-1.761-1.969-2.344-.887-.582-1.987-.873-3.3-.873-.813 0-1.567.124-2.26.374-.693.25-1.234.596-1.622 1.04V4.667h8.818V.507H19.651v11.87h4.604c.148-.425.425-.772.832-1.04.406-.268.915-.402 1.525-.402.795 0 1.414.23 1.858.693.444.462.666 1.119.666 1.97 0 .887-.208 1.598-.624 2.135-.416.536-1.04.804-1.872.804-.721 0-1.29-.204-1.706-.61-.416-.407-.67-.925-.763-1.553h-4.63c.036 1.238.35 2.33.942 3.272.592.943 1.433 1.678 2.524 2.205 1.09.527 2.375.79 3.854.79z" transform="translate(15.853 11.96)"/>
                    </g>
                </g>
            </g>
        </g>
    </g>
</svg>
