<svg xmlns="http://www.w3.org/2000/svg" width="36" height="36" viewBox="0 0 36 36">
    <g fill="none" fill-rule="evenodd">
        <g>
            <g>
                <g>
                    <g>
                        <g>
                            <g fill="#F2F2F2" fill-rule="nonzero">
                                <path d="M15.749 2.58h-.942L15.024 0H3.466l.217 2.58H2.74C1.23 2.58 0 3.81 0 5.321c0 1.512 1.23 2.742 2.741 2.742h1.53c.57 1.814 2.098 3.184 3.971 3.55v1.472c0 1.592-1.048 2.994-2.576 3.443l-1.64.482v1.48h10.437v-1.48l-1.64-.482c-1.527-.45-2.575-1.851-2.575-3.443v-1.472c1.873-.366 3.4-1.736 3.972-3.55h1.529c1.511 0 2.741-1.23 2.741-2.742 0-1.511-1.23-2.741-2.741-2.741zM2.74 6.98c-.914 0-1.658-.745-1.658-1.659s.744-1.658 1.658-1.658h1.033l.274 3.268.004.048h-1.31zm13.008 0h-1.312l.005-.05.274-3.267h1.033c.914 0 1.657.744 1.657 1.658 0 .914-.743 1.658-1.657 1.658z" transform="translate(-169 -269) translate(17 163) translate(0 99) translate(115) translate(37 7) translate(7.714 9.429)"/>
                            </g>
                        </g>
                    </g>
                </g>
            </g>
        </g>
    </g>
</svg>
