<svg xmlns="http://www.w3.org/2000/svg" width="40" height="40" viewBox="0 0 40 40">
    <defs>
        <linearGradient id="o9to07k3fa" x1="35.019%" x2="67.721%" y1="39.758%" y2="84.553%">
            <stop offset="0%" stop-color="#FB6E00"/>
            <stop offset="100%" stop-color="#FA3800"/>
        </linearGradient>
    </defs>
    <g fill="none" fill-rule="evenodd">
        <g>
            <g>
                <g>
                    <g>
                        <g transform="translate(-309 -1556) translate(14 1379) translate(295 57) translate(0 120)">
                            <circle cx="19.635" cy="19.635" r="19.635" fill="url(#o9to07k3fa)"/>
                        </g>
                        <path fill="#FFF" fill-rule="nonzero" d="M11.378 30.108c-.643-.507-.753-1.438-.247-2.08.507-.643 1.438-.754 2.08-.247.86.677 1.826 1.216 2.877 1.599 5.382 1.959 11.333-.816 13.292-6.198 1.959-5.382-.816-11.333-6.198-13.292-5.382-1.959-11.333.816-13.292 6.198-.28.769-1.13 1.165-1.899.885-.769-.28-1.165-1.13-.885-1.898 2.518-6.92 10.17-10.488 17.09-7.97 6.919 2.52 10.487 10.17 7.968 17.09-2.518 6.92-10.17 10.488-17.09 7.97-1.347-.492-2.59-1.186-3.696-2.057z" transform="translate(-309 -1556) translate(14 1379) translate(295 57) translate(0 120) rotate(-26 19.994 19.635)"/>
                        <g fill-rule="nonzero">
                            <g>
                                <path fill="#FFF" d="M6.686 3.915V.853c0-.23-.261-.361-.444-.223L.111 5.264c-.146.11-.149.33-.005.444 6.547 5.195 6.111 4.883 6.25 4.883.151 0 .276-.125.276-.28V7.104l.054-3.189z" transform="translate(-309 -1556) translate(14 1379) translate(295 57) translate(0 120) translate(2.227 12.519) rotate(-90 6.037 5.754)"/>
                                <path fill="#ECECEC" d="M6.355 9.044c-.137 0 .267.288-5.534-4.316l-.71.536c-.146.11-.149.33-.005.444l6.078 4.823c.18.143.448.013.448-.22V8.764c0 .155-.125.28-.277.28z" transform="translate(-309 -1556) translate(14 1379) translate(295 57) translate(0 120) translate(2.227 12.519) rotate(-90 6.037 5.754)"/>
                            </g>
                            <path fill="#ECECEC" d="M17.291.589c.781 0 1.42.604 1.477 1.37l.004.111V7.09l3.587 2.635c.659.484.8 1.412.316 2.071-.46.626-1.32.786-1.97.385l-.1-.068L16.41 9.03c-.419-.308-.629-.794-.602-1.277l.002-5.683c0-.818.663-1.481 1.481-1.481z" transform="translate(-309 -1556) translate(14 1379) translate(295 57) translate(0 120) translate(2.227 12.519)"/>
                        </g>
                    </g>
                </g>
            </g>
        </g>
    </g>
</svg>
