<svg xmlns="http://www.w3.org/2000/svg" width="40" height="40" viewBox="0 0 40 40">
    <defs>
        <linearGradient id="dfsj25594a" x1="35.019%" x2="67.721%" y1="39.758%" y2="84.553%">
            <stop offset="0%" stop-color="#FB6E00"/>
            <stop offset="100%" stop-color="#FA3800"/>
        </linearGradient>
    </defs>
    <g fill="none" fill-rule="evenodd">
        <g>
            <g>
                <g>
                    <g transform="translate(-309 -713) translate(14 551) translate(295 92) translate(0 70)">
                        <circle cx="19.635" cy="19.635" r="19.635" fill="url(#dfsj25594a)"/>
                        <g fill-rule="nonzero">
                            <g>
                                <path fill="#ECECEC" d="M11.834 10.168L8.698 6.682l3.136-3.487c.12-.132.186-.311.186-.498s-.067-.366-.186-.498L10.042.206c-.247-.275-.648-.275-.896 0L6.01 3.693 2.874.206c-.248-.275-.649-.275-.896 0L.186 2.2c-.248.275-.248.72 0 .996l3.136 3.487-3.136 3.486c-.248.275-.248.721 0 .997l1.792 1.992c.119.132.28.206.448.206.168 0 .33-.074.448-.206L6.01 9.67l3.136 3.487c.119.132.28.206.448.206.168 0 .33-.074.448-.206l1.792-1.992c.248-.275.248-.721 0-.997z" transform="translate(5.496 11.415) translate(0 2.108)"/>
                                <path fill="#FFF" d="M.186 11.165l1.792 1.992c.119.132.28.206.448.206.168 0 .329-.074.448-.206L6.01 9.67V3.693L2.874.206c-.248-.275-.649-.275-.896 0L.186 2.2c-.248.275-.248.72 0 .996l3.136 3.487-3.136 3.486c-.248.276-.248.722 0 .997z" transform="translate(5.496 11.415) translate(0 2.108)"/>
                            </g>
                            <path fill="#FFF" d="M19.65 16.775v-5.847h2.496c1.302 0 2.408-.231 3.318-.695.91-.464 1.597-1.1 2.06-1.91.463-.809.694-1.732.694-2.77 0-1.665-.518-2.99-1.553-3.972C25.629.6 24.123.108 22.145.108h-6.52v16.667h4.026zm2.048-9.076h-2.047V3.36h2.047c1.617 0 2.425.731 2.425 2.193 0 1.43-.808 2.145-2.425 2.145z" transform="translate(5.496 11.415)"/>
                            <path fill="#ECECEC" d="M22.146.108c1.977 0 3.483.491 4.519 1.473 1.035.983 1.553 2.307 1.553 3.973 0 1.037-.231 1.96-.694 2.77-.463.809-1.15 1.445-2.06 1.909-.91.464-2.016.695-3.318.695h-1.582v-3.23h1.134c1.55 0 2.356-.656 2.42-1.97l.005-.174c0-1.462-.808-2.193-2.425-2.193h-1.134V.108z" transform="translate(5.496 11.415)"/>
                        </g>
                    </g>
                </g>
            </g>
        </g>
    </g>
</svg>
