<svg width="16" height="16" xmlns="http://www.w3.org/2000/svg">
    <g fill="#F2F2F2" fill-rule="nonzero">
        <path d="M15.703 2.794 13.206.297A1.007 1.007 0 0 0 12.49 0c-.27 0-.525.105-.716.297l-9.938 9.938-.012.013-.008.008a.317.317 0 0 0-.04.062l-.004.008a.309.309 0 0 0-.011.028l-.002.005-1.741 5.224a.317.317 0 0 0 .4.4l5.224-1.74.005-.003a.318.318 0 0 0 .028-.011l.008-.004a.314.314 0 0 0 .062-.04l.008-.007.013-.012L14.531 5.4l1.172-1.172a1.015 1.015 0 0 0 0-1.434zm-4.878-.652 1.292 1.292L3.8 11.752l-1.293-1.293 8.318-8.317zm-8.21 12.44-1.197-1.198.78-2.338 2.756 2.757-2.338.78zm2.926-1.09L4.248 12.2l8.318-8.317 1.292 1.293-8.317 8.317z"/>
        <path d="M10.384 3.856a.317.317 0 0 0-.448 0L7.959 5.833a.317.317 0 1 0 .448.449l1.977-1.977a.317.317 0 0 0 0-.449zM10.895 3.018c-.409 0-.41.634 0 .634.408 0 .408-.634 0-.634z"/>
    </g>
</svg>
