<svg width="30" height="30" xmlns="http://www.w3.org/2000/svg">
    <defs>
        <linearGradient x1="35.019%" y1="39.758%" x2="67.721%" y2="84.553%" id="a">
            <stop stop-color="#FB6E00" offset="0%"/>
            <stop stop-color="#FA3800" offset="100%"/>
        </linearGradient>
    </defs>
    <g fill="none" fill-rule="evenodd">
        <circle cx="14.726" cy="14.726" r="14.726" fill="url(#a)"/>
        <path fill="#F2F2F2" fill-rule="nonzero" d="m19.704 7.391 2.357 2.357L9.748 22.061l-2.357-2.357z"/>
        <path fill="#ECECEC" fill-rule="nonzero" d="m21.202 8.98.86.768L9.747 22.061l-.859-.768z"/>
        <path d="M14.726 4.448C9.05 4.448 4.448 9.05 4.448 14.726S9.05 25.004 14.726 25.004s10.278-4.602 10.278-10.278S20.402 4.448 14.726 4.448zm0 2.778a7.5 7.5 0 1 1 0 15 7.5 7.5 0 0 1 0-15z" fill="#F2F2F2" fill-rule="nonzero"/>
        <path d="M14.726 4.448C9.05 4.448 4.448 9.05 4.448 14.726S9.05 25.004 14.726 25.004s10.278-4.602 10.278-10.278S20.402 4.448 14.726 4.448zm0 2.778a7.5 7.5 0 1 1 0 15 7.5 7.5 0 0 1 0-15z" fill="#F2F2F2" fill-rule="nonzero"/>
        <path d="M22.888 8.478a10.233 10.233 0 0 1 2.116 6.248c0 5.676-4.602 10.278-10.278 10.278a10.27 10.27 0 0 1-8.666-4.75 10.264 10.264 0 0 0 8.161 4.03c5.677 0 10.278-4.602 10.278-10.279a10.23 10.23 0 0 0-1.54-5.414zM14.22 6.505c2.7 0 5.067 1.427 6.388 3.567a7.5 7.5 0 0 0-12.27 8.587 7.5 7.5 0 0 1 5.883-12.154z" fill="#ECECEC" fill-rule="nonzero"/>
    </g>
</svg>
