<svg width="25" height="25" xmlns="http://www.w3.org/2000/svg">
    <defs>
        <linearGradient x1="35.019%" y1="39.758%" x2="67.721%" y2="84.553%" id="a">
            <stop stop-color="#FB6E00" offset="0%"/>
            <stop stop-color="#FA3800" offset="100%"/>
        </linearGradient>
        <filter id="b">
            <feColorMatrix in="SourceGraphic" values="0 0 0 0 0.847000 0 0 0 0 0.847000 0 0 0 0 0.847000 0 0 0 1.000000 0"/>
        </filter>
    </defs>
    <g transform="translate(.5 .5)" fill="none" fill-rule="evenodd">
        <circle fill="url(#a)" cx="11.974" cy="11.974" r="11.974"/>
        <g filter="url(#b)">
            <g fill-rule="nonzero">
                <path d="M8.868 12.984V4.639H5.492v1.888h1.252v6.457h2.124zm3.128 0v-2.019h-2.09v2.019h2.09z" fill="#FFF"/>
                <path d="M18.7 12.89v-1.63h-3.293a8.695 8.695 0 0 0 2.231-1.965c.622-.775.932-1.568.932-2.378 0-.732-.23-1.326-.69-1.783-.46-.456-1.143-.684-2.048-.684-.865 0-1.582.256-2.148.767-.567.512-.874 1.275-.92 2.29h1.97c.016-.464.097-.807.242-1.027.146-.22.376-.33.69-.33.56 0 .839.322.839.967 0 1.055-1.251 2.475-3.754 4.261v1.511h5.95z" fill="#ECECEC"/>
                <g>
                    <path d="m15.3 19.404-1.762-1.762 1.761-1.762a.356.356 0 0 0 0-.503l-1.006-1.007a.356.356 0 0 0-.504 0l-1.761 1.762-1.762-1.762a.356.356 0 0 0-.503 0l-1.007 1.007a.356.356 0 0 0 0 .503l1.762 1.762-1.762 1.762a.356.356 0 0 0 0 .503l1.007 1.006a.356.356 0 0 0 .503 0l1.762-1.761 1.761 1.761a.356.356 0 0 0 .504 0l1.006-1.006a.356.356 0 0 0 0-.503z" fill="#ECECEC"/>
                    <path d="m8.756 19.907 1.007 1.006a.356.356 0 0 0 .503 0l1.762-1.761v-3.02l-1.762-1.762a.356.356 0 0 0-.503 0l-1.007 1.007a.356.356 0 0 0 0 .503l1.762 1.762-1.762 1.762a.356.356 0 0 0 0 .503z" fill="#FFF"/>
                </g>
            </g>
        </g>
    </g>
</svg>
