<svg width="12" height="13" xmlns="http://www.w3.org/2000/svg">
    <g fill="#688FBD" fill-rule="nonzero">
        <path d="M.568 11.736a23.644 23.644 0 0 1 1.128-3.044l-.6-.6a.207.207 0 1 1 .292-.293l.494.495c.141-.29.286-.571.436-.841l-.602-.603a.207.207 0 1 1 .292-.292l.524.523c.16-.271.323-.533.493-.784l-.689-.688a.207.207 0 1 1 .293-.293l.635.635c.18-.25.366-.49.557-.72l-.657-.656a.207.207 0 1 1 .293-.293l.633.634c.202-.229.409-.448.62-.657l-.719-.719a.207.207 0 1 1 .293-.293l.725.726c.224-.206.453-.402.688-.59l-.671-.67a.207.207 0 1 1 .292-.293l.71.71c.246-.183.497-.357.755-.523l-.516-.516A.207.207 0 1 1 6.56 1.8l.583.583C8.452 1.594 9.906.998 11.504.495A1.532 1.532 0 0 0 10.46.083h-.752C4.355.083 0 4.438 0 9.79v.753c0 .48.222.91.568 1.193z"/>
        <path d="m7.45 2.688.558.56a.207.207 0 1 1-.292.292l-.63-.629c-.258.165-.51.337-.757.52l.438.437a.207.207 0 1 1-.293.293l-.477-.477c-.235.186-.464.382-.688.588l.423.423a.207.207 0 1 1-.292.293l-.43-.43c-.213.209-.42.428-.62.657l.515.515a.207.207 0 1 1-.293.293l-.491-.492c-.19.23-.375.47-.555.722l.511.512a.207.207 0 1 1-.292.292L3.327 6.6c-.168.252-.33.515-.49.788l.62.619a.207.207 0 1 1-.293.293l-.537-.538c-.149.272-.294.551-.433.844l.642.642a.207.207 0 1 1-.293.293l-.533-.533a23.458 23.458 0 0 0-1.076 2.951c.186.08.391.125.607.125h.752C7.645 12.083 12 7.73 12 2.376v-.752c0-.286-.08-.553-.216-.783-1.59.492-3.035 1.074-4.335 1.847z"/>
    </g>
</svg>
