<svg width="12" height="12" xmlns="http://www.w3.org/2000/svg">
    <path d="M8.886 7.44a.655.655 0 0 0-.275-.061h-.828a4.843 4.843 0 0 1-.027-.499c.001-.054.004-.107.008-.16.071-.833.68-1.521 1.446-1.639l1.544-.235a.417.417 0 0 0 .31-.249.538.538 0 0 0 0-.438C10.09 2.009 7.877.565 5.555.565c-.844 0-1.64.187-2.367.556C.808 2.328-.297 5.288.369 8.398c-.327.247-.463.735-.3 1.16l.501 1.314c.071.186.231.306.409.306a.414.414 0 0 0 .292-.126l.884-.884-.333-.683.304-.154c.292-.148.645-.04.856.257.541.759 1.344 1.194 2.201 1.194.397 0 .783-.094 1.148-.279.19-.096.352-.196.498-.3.71.665 1.54 1.143 2.097 1.143h2.308c.414 0 .74-.361.74-.821V8.97L8.885 7.44zM1.003 10.7a.033.033 0 0 1-.024.01.036.036 0 0 1-.035-.026L.443 9.37a.53.53 0 0 1 .05-.474 9.222 9.222 0 0 0 .145.484c.106.317.441.482.711.345l.098-.05.19.39-.634.634zm2.196-3.066c0 .387-.275.702-.613.702h-.25c-.337 0-.612-.315-.612-.702v-.286c0-.387.275-.702.613-.702h.25c.337 0 .612.315.612.702v.286zm1.993 1.71c-.84 0-1.523-.784-1.523-1.746s.684-1.745 1.523-1.745c.84 0 1.523.783 1.523 1.745 0 .962-.683 1.745-1.523 1.745zm3.325 1.443c-.393-.148-.884-.47-1.337-.874a2.11 2.11 0 0 0 .502-.737l.835.447v1.164zm0-1.68-.71-.38c.048-.3.04-.597.018-.88h.692v1.26zm3.048 1.418c0 .2-.143.353-.331.353H8.925v-1.13l2.64.576v.2zm0-.676-2.64-.57V7.97l2.64 1.308v.572z" fill="#688FBD" fill-rule="nonzero"/>
</svg>
