<svg xmlns="http://www.w3.org/2000/svg" width="69" height="79" viewBox="0 0 69 79">
    <defs>
        <filter id="ecqw53y3ba" width="140.5%" height="216.9%" x="-20.3%" y="-51.7%" filterUnits="objectBoundingBox">
            <feOffset in="SourceAlpha" result="shadowOffsetOuter1"/>
            <feGaussianBlur in="shadowOffsetOuter1" result="shadowBlurOuter1" stdDeviation="12"/>
            <feColorMatrix in="shadowBlurOuter1" result="shadowMatrixOuter1" values="0 0 0 0 0 0 0 0 0 0 0 0 0 0 0 0 0 0 1 0"/>
            <feMerge>
                <feMergeNode in="shadowMatrixOuter1"/>
                <feMergeNode in="SourceGraphic"/>
            </feMerge>
        </filter>
    </defs>
    <g fill="none" fill-rule="evenodd">
        <g fill="#F2F2F2" fill-rule="nonzero">
            <g>
                <g>
                    <g filter="url(#ecqw53y3ba)" transform="translate(-123.000000, -945.000000) translate(100.000000, 490.000000) translate(0.000000, 420.000000) translate(24.000000, 18.000000)">
                        <g>
                            <path d="M23.798 10.701c-.276-3.518-3.15-4.862-6.886-5.35l-.597-.071.09-5.128-3.121-.054-.087 4.993c-.82-.015-1.66-.013-2.494-.01l.089-5.026L7.672 0l-.09 5.126c-.676.002-1.34.003-1.987-.008v-.016L1.29 5.026l-.058 3.333 1.811.012.283.008.156.011c.013.003.02.005.017.007 1.264.023 1.663.764 1.771 1.4l-.101 5.84c.087.003.2.009.33.028l-.33-.005-.144 8.183c-.063.397-.307 1.028-1.19 1.014.004.004-.024.007-.077.008l-.225.001-1.31-.03-.658-.02-.685 3.717 4.062.071 2.23.057-.09 5.186 3.118.055.09-5.131c.855.033 1.683.054 2.492.067l-.09 5.108 3.121.054.091-5.177.327-.014.64-.038c.21-.015.418-.031.622-.05l.605-.064c4.07-.488 6.834-2.019 7.297-6.22.437-3.962-1.398-5.765-4.365-6.532 1.756-.856 2.896-2.372 2.787-4.896l-.019-.308zm-4.56 11.013c-.038 2.215-2.218 2.982-4.475 3.226l-.484.045-.482.03-.475.02-.464.008-.448.001-1.022-.019-.96-.027.121-6.871h1.723l.428.005.445.013.458.02.467.032.472.044c2.364.255 4.739 1.048 4.696 3.473zm-1.282-9.72c-.042 2.35-2.512 2.909-4.677 3.01l-.428.015-.616.004-.57-.01-1.06-.031.108-6.232 1.589-.003.396.008.41.016.21.012.424.032c1.994.182 4.103.815 4.21 2.945l.004.234z" transform="translate(20.500000, 39.191808)"/>
                        </g>
                    </g>
                </g>
            </g>
        </g>
    </g>
</svg>
