<svg xmlns="http://www.w3.org/2000/svg" width="84" height="84" viewBox="0 0 84 84">
    <defs>
        <linearGradient id="la1p90ktja" x1="35.019%" x2="67.721%" y1="39.758%" y2="84.553%">
            <stop offset="0%" stop-color="#FB6E00"/>
            <stop offset="100%" stop-color="#FA3800"/>
        </linearGradient>
    </defs>
    <g fill="none" fill-rule="evenodd">
        <g>
            <g>
                <g>
                    <g fill="url(#la1p90ktja)" transform="translate(-678.000000, -305.000000) translate(495.000000, 263.000000) translate(183.000000, 42.000000)">
                        <circle cx="41.233" cy="41.233" r="41.233"/>
                    </g>
                    <path fill="#F2F2F2" fill-rule="nonzero" d="M55.171 20.695L61.771 27.295 27.295 61.771 20.695 55.171z" transform="translate(-678.000000, -305.000000) translate(495.000000, 263.000000) translate(183.000000, 42.000000)"/>
                    <path fill="#ECECEC" fill-rule="nonzero" d="M59.366 25.144L61.771 27.295 27.295 61.771 24.889 59.62z" transform="translate(-678.000000, -305.000000) translate(495.000000, 263.000000) translate(183.000000, 42.000000)"/>
                    <path fill="#F2F2F2" fill-rule="nonzero" d="M41.233 12.455c-15.893 0-28.778 12.885-28.778 28.778 0 15.894 12.885 28.778 28.778 28.778 15.894 0 28.778-12.884 28.778-28.778 0-15.893-12.884-28.778-28.778-28.778zm0 7.778c11.598 0 21 9.402 21 21s-9.402 21-21 21-21-9.402-21-21 9.402-21 21-21z" transform="translate(-678.000000, -305.000000) translate(495.000000, 263.000000) translate(183.000000, 42.000000)"/>
                    <path fill="#F2F2F2" fill-rule="nonzero" d="M41.233 12.455c-15.893 0-28.778 12.885-28.778 28.778 0 15.894 12.885 28.778 28.778 28.778 15.894 0 28.778-12.884 28.778-28.778 0-15.893-12.884-28.778-28.778-28.778zm0 7.778c11.598 0 21 9.402 21 21s-9.402 21-21 21-21-9.402-21-21 9.402-21 21-21z" transform="translate(-678.000000, -305.000000) translate(495.000000, 263.000000) translate(183.000000, 42.000000)"/>
                    <path fill="#ECECEC" fill-rule="nonzero" d="M64.097 23.755c3.71 4.845 5.914 10.904 5.914 17.478 0 15.894-12.884 28.778-28.778 28.778-10.206 0-19.17-5.313-24.28-13.323 5.258 6.872 13.545 11.305 22.867 11.305 15.894 0 28.778-12.885 28.778-28.778 0-5.563-1.578-10.757-4.312-15.16zm-24.277-5.54c7.565 0 14.196 4 17.893 10.001-3.846-4.863-9.799-7.983-16.48-7.983-11.598 0-21 9.402-21 21 0 3.983 1.11 7.707 3.035 10.88l.078.127c-2.834-3.58-4.526-8.105-4.526-13.025 0-11.598 9.402-21 21-21z" transform="translate(-678.000000, -305.000000) translate(495.000000, 263.000000) translate(183.000000, 42.000000)"/>
                </g>
            </g>
        </g>
    </g>
</svg>
