<svg xmlns="http://www.w3.org/2000/svg" width="30" height="15" viewBox="0 0 30 15">
    <g fill="none" fill-rule="evenodd">
        <g fill="#FB6E00" fill-rule="nonzero">
            <g>
                <g>
                    <path d="M48.779 20c2.08 0 3.803-.675 5.17-2.026C55.316 16.624 56 14.791 56 12.476c0-2.38-.646-4.22-1.94-5.523C52.769 5.651 50.964 5 48.646 5c-1.635 0-3.083.45-4.346 1.35-1.263.9-2.31 2.09-3.143 3.57-1.1-1.544-2.251-2.75-3.455-3.618C36.498 5.434 35.004 5 33.221 5c-2.08 0-3.803.675-5.17 2.026C26.684 8.376 26 10.209 26 12.524c0 2.38.654 4.22 1.961 5.523C29.27 19.349 31.067 20 33.355 20c1.545 0 2.942-.426 4.19-1.278 1.248-.852 2.289-1.97 3.12-3.352 1.13 1.447 2.334 2.58 3.611 3.4 1.278.82 2.779 1.23 4.503 1.23zm-15.246-3.762c-1.07 0-1.916-.338-2.54-1.013-.625-.675-.937-1.575-.937-2.7 0-1.158.327-2.09.981-2.798.654-.708 1.53-1.061 2.63-1.061.921 0 1.76.337 2.519 1.012.758.676 1.597 1.672 2.518 2.99-.653 1.158-1.426 2.043-2.318 2.654-.891.61-1.842.916-2.853.916zm14.8.048c-1.07 0-2.006-.305-2.808-.916-.803-.611-1.635-1.511-2.497-2.701.713-1.254 1.53-2.227 2.452-2.918.921-.692 1.917-1.037 2.987-1.037s1.916.337 2.54 1.013c.625.675.937 1.591.937 2.749 0 1.157-.327 2.082-.981 2.773-.654.692-1.53 1.037-2.63 1.037z" transform="translate(-150.000000, -828.000000) translate(100.000000, 490.000000) translate(24.000000, 333.000000)"/>
                </g>
            </g>
        </g>
    </g>
</svg>
