<svg xmlns="http://www.w3.org/2000/svg" xmlns:xlink="http://www.w3.org/1999/xlink" width="38" height="32" viewBox="0 0 38 32">
    <defs>
        <linearGradient id="lx9ws01t5c" x1="0%" x2="100%" y1="23.554%" y2="76.446%">
            <stop offset="0%" stop-color="#E05600"/>
            <stop offset="100%" stop-color="#FB7B19"/>
        </linearGradient>
        <filter id="1ee911dj7a" width="218.2%" height="262.5%" x="-50%" y="-68.8%" filterUnits="objectBoundingBox">
            <feOffset dx="2" dy="2" in="SourceAlpha" result="shadowOffsetOuter1"/>
            <feGaussianBlur in="shadowOffsetOuter1" result="shadowBlurOuter1" stdDeviation="4"/>
            <feColorMatrix in="shadowBlurOuter1" values="0 0 0 0 0 0 0 0 0 0 0 0 0 0 0 0 0 0 0.5 0"/>
        </filter>
        <path id="sdv4zspsjb" d="M8 0h14v8c0 4.418-3.582 8-8 8H0V8c0-4.418 3.582-8 8-8z"/>
    </defs>
    <g fill="none" fill-rule="evenodd">
        <g>
            <g>
                <g>
                    <g>
                        <g>
                            <g>
                                <g transform="translate(-455.000000, -781.000000) translate(186.000000, 618.000000) translate(40.000000, 147.000000) translate(0.500000, 0.000000) translate(20.000000, 22.000000) translate(214.500000, 0.000000)">
                                    <use fill="#000" filter="url(#1ee911dj7a)" xlink:href="#sdv4zspsjb"/>
                                    <use fill="url(#lx9ws01t5c)" xlink:href="#sdv4zspsjb"/>
                                </g>
                                <path fill="#202124" d="M11 10.511L8.061 12.045 8.612 8.776 6.245 6.455 9.524 5.969 11 3 12.476 5.969 15.755 6.455 13.388 8.776 13.939 12.045z" transform="translate(-455.000000, -781.000000) translate(186.000000, 618.000000) translate(40.000000, 147.000000) translate(0.500000, 0.000000) translate(20.000000, 22.000000) translate(214.500000, 0.000000)"/>
                            </g>
                        </g>
                    </g>
                </g>
            </g>
        </g>
    </g>
</svg>
