<svg width="100" height="100" viewBox="0 0 100 100" xmlns="http://www.w3.org/2000/svg">
    <g fill="#FB6E00" fill-rule="nonzero">
        <path d="M50 0C22.43 0 0 22.429 0 50s22.43 50 50 50 50-22.429 50-50S77.57 0 50 0zm0 96.154C24.552 96.154 3.846 75.448 3.846 50 3.846 24.552 24.552 3.846 50 3.846c25.448 0 46.154 20.706 46.154 46.154 0 25.448-20.706 46.154-46.154 46.154z"/>
        <path d="m73.562 29.492-29.556 33.25L26.2 48.498a1.924 1.924 0 0 0-2.402 3.004l19.23 15.385a1.92 1.92 0 0 0 1.203.42c.53 0 1.06-.219 1.438-.645l30.77-34.616a1.92 1.92 0 0 0-.16-2.713 1.922 1.922 0 0 0-2.717.16z"/>
    </g>
</svg>
