<svg width="12" height="12" viewBox="0 0 12 12" xmlns="http://www.w3.org/2000/svg">
    <g fill="#111" fill-rule="nonzero" opacity=".8">
        <path d="M11.866 8.803 8.113 5.825a.171.171 0 0 0-.277.136v1.98h-4.27c-1.03 0-2.087-.288-2.867-.97-.122-.108-.31.001-.28.162.053.283.16.71.374 1.135.549 1.09 1.481 1.641 2.772 1.641h4.238v1.89c0 .066.037.126.095.155a.17.17 0 0 0 .179-.016l3.786-2.862a.173.173 0 0 0 .003-.273z"/>
        <path d="m11.866 8.803-.49-.388c-3.565 2.695-3.32 2.528-3.402 2.528a.172.172 0 0 1-.17-.173v1.03a.17.17 0 0 0 .274.138l3.785-2.862a.173.173 0 0 0 .003-.273zM11.512 4.845c-.314-1.681-1.362-2.777-3.146-2.777H4.128V.178A.171.171 0 0 0 3.854.04L.068 2.9a.173.173 0 0 0-.003.274C4.107 6.382 3.84 6.19 3.924 6.19a.172.172 0 0 0 .17-.173v-1.98h4.272c1.032 0 2.088.29 2.866.97.122.107.31-.002.28-.162z"/>
        <path d="M3.924 5.234c-.085 0 .165.178-3.417-2.664L.068 2.9a.173.173 0 0 0-.003.274l3.753 2.978a.171.171 0 0 0 .277-.136v-.955a.172.172 0 0 1-.171.172zM11.512 4.845a4.58 4.58 0 0 0-.209-.756c-.114-.028-.975-1.007-2.937-1.007H5.143a.981.981 0 0 1-.204.015c-.622 0-.8.345-.844.617v.323h4.27c1.033 0 2.089.29 2.867.97.122.107.31-.002.28-.162zM6.871 8.88H3.565c-1.43 0-2.402-.684-2.903-1.934a.171.171 0 0 0-.243.187C.733 8.814 1.78 9.909 3.565 9.909h4.238v-.244c-.031-.305-.197-.785-.932-.785z"/>
    </g>
</svg>
